<svg xmlns="http://www.w3.org/2000/svg" width="360" height="360" viewBox="0 0 360 360">
<title>노피 안녕 — 원본 윤곽 추적 벡터</title>
<defs><radialGradient id="cheek"><stop stop-color="#f9b9c4" stop-opacity=".92"/><stop offset=".73" stop-color="#fac3cc" stop-opacity=".8"/><stop offset="1" stop-color="#fbd8df" stop-opacity="0"/></radialGradient><linearGradient id="jelly" x1="0" y1="0" x2="0" y2="1"><stop stop-color="#d5c6f0" stop-opacity=".8"/><stop offset="1" stop-color="#d1c1ed" stop-opacity=".3"/></linearGradient></defs>
<ellipse cx="178" cy="294" rx="108" ry="14" transform="rotate(7 178 294)" fill="url(#jelly)"/>
<path d="M 75 190 C 80 182 86 179 95 179 C 95 166 107 155 123 151 C 119 133 135 109 160 102 C 160 91 176 85 192 89 C 214 89 227 104 223 121 C 222 129 219 138 216 147 C 222 133 231 122 245 123 C 263 122 276 136 279 151 C 283 165 276 178 268 185 C 276 190 282 198 279 206 C 280 221 284 237 279 250 C 291 255 299 266 299 278 C 300 294 287 305 274 305 C 268 310 261 310 256 307 C 244 313 224 313 210 308 C 193 303 176 301 157 299 C 140 299 127 295 115 290 C 102 284 95 272 93 259 C 78 257 66 250 60 239 C 48 221 53 201 65 195 C 75 187 89 190 99 199" fill="#fffdfa" stroke="#252252" stroke-width="3.2" stroke-linecap="round" stroke-linejoin="round"/>
<path d="M 99 199 C 104 205 107 212 104 220 M 278 250 C 268 244 258 252 253 262 C 247 274 251 289 262 295 C 270 300 283 301 290 295" fill="none" stroke="#252252" stroke-width="3.2" stroke-linecap="round"/>
<ellipse cx="127" cy="221" rx="20" ry="16" transform="rotate(9 127 221)" fill="url(#cheek)"/>
<ellipse cx="240" cy="247" rx="20" ry="17" transform="rotate(16 240 247)" fill="url(#cheek)"/>
<ellipse cx="186" cy="238" rx="7" ry="5" fill="#f7bbc6"/>
<path d="M0 0 C1.5 1.188 1.5 1.188 3 3 C3.188 5.688 3.188 5.688 3 8 C4.98 8.66 6.96 9.32 9 10 C9 10.99 9 11.98 9 13 C7.02 13.33 5.04 13.66 3 14 C2.67 16.31 2.34 18.62 2 21 C0.68 20.67 -0.64 20.34 -2 20 C-2.058 17.042 -2.094 14.084 -2.125 11.125 C-2.142 10.283 -2.159 9.441 -2.176 8.574 C-2.182 7.769 -2.189 6.963 -2.195 6.133 C-2.206 5.389 -2.216 4.646 -2.227 3.879 C-2 2 -2 2 0 0 Z " fill="#252252" transform="translate(92,31)"/>
<path d="M0 0 C2 1.625 2 1.625 3 4 C3.19 7.617 2.673 10.171 0.375 13 C-2.978 14.412 -5.587 14.204 -9 13 C-11.395 10.914 -12.194 9.095 -12.5 6 C-12.355 3.525 -11.731 2.273 -9.938 0.562 C-6.669 -1.663 -3.599 -1.365 0 0 Z M-7 3 C-8 4 -8 4 -8.312 6.438 C-8 9 -8 9 -6.188 10.438 C-4 11 -4 11 -2.188 10.438 C-1 9 -1 9 -1 6.438 C-1.33 5.633 -1.66 4.829 -2 4 C-4.5 3.125 -4.5 3.125 -7 3 Z " fill="#252252" transform="translate(82,34)"/>
<path d="M0 0 C1.32 0.33 2.64 0.66 4 1 C4.33 4.3 4.66 7.6 5 11 C6.299 11.082 7.599 11.165 8.938 11.25 C11.152 11.391 11.152 11.391 13 12 C13.754 14.047 13.754 14.047 14 16 C11.854 15.86 9.708 15.713 7.562 15.562 C6.951 15.523 6.339 15.484 5.709 15.443 C1.113 15.113 1.113 15.113 0 14 C-0.114 12.601 -0.114 12.601 -0.098 10.84 C-0.094 10.211 -0.091 9.583 -0.088 8.936 C-0.08 8.276 -0.071 7.617 -0.062 6.938 C-0.058 6.274 -0.053 5.611 -0.049 4.928 C-0.037 3.285 -0.021 1.643 0 0 Z " fill="#252252" transform="translate(109,36)"/>
<path d="M0 0 C0.99 0 1.98 0 3 0 C3 5.28 3 10.56 3 16 C1.68 16.33 0.36 16.66 -1 17 C-0.979 16.237 -0.959 15.474 -0.938 14.688 C-2 12 -2 12 -4.07 11 C-6.366 10.251 -8.657 9.582 -11 9 C-11 8.34 -11 7.68 -11 7 C-9.708 6.973 -8.417 6.954 -7.125 6.938 C-6.406 6.926 -5.686 6.914 -4.945 6.902 C-3 7 -3 7 -1 8 C-1 7.34 -1 6.68 -1 6 C-1.566 5.974 -2.132 5.948 -2.715 5.922 C-3.448 5.865 -4.182 5.808 -4.938 5.75 C-5.303 5.727 -5.303 5.727 -7.152 5.609 C-7.762 5.408 -8.372 5.207 -9 5 C-9.754 2.953 -9.754 2.953 -10 1 C-9.362 1.012 -8.724 1.023 -8.066 1.035 C-7.24 1.044 -6.414 1.053 -5.562 1.062 C-5.151 1.068 -5.151 1.068 -3.066 1.098 C-1 1 -1 1 0 0 Z " fill="#252252" transform="translate(131,37)"/>
<path d="M0 0 C1.32 0 2.64 0 4 0 C3.67 5.94 3.34 11.88 3 18 C1.68 18.33 0.36 18.66 -1 19 C-1.029 16.208 -1.047 13.417 -1.062 10.625 C-1.071 9.831 -1.079 9.037 -1.088 8.219 C-1.091 7.458 -1.094 6.698 -1.098 5.914 C-1.103 5.212 -1.108 4.511 -1.114 3.788 C-1 2 -1 2 0 0 Z " fill="#252252" transform="translate(149,40)"/>
<path d="M0 0 C0.99 0 1.98 0 3 0 C4 2 4 2 4 8 C8.62 8 13.24 8 18 8 C18 9.32 18 10.64 18 12 C15.375 12.058 12.75 12.094 10.125 12.125 C9.379 12.142 8.632 12.159 7.863 12.176 C7.148 12.182 6.432 12.189 5.695 12.195 C5.035 12.206 4.376 12.216 3.696 12.227 C2 12 2 12 0 10 C-0.195 7.617 -0.195 7.617 -0.125 4.875 C-0.107 3.965 -0.089 3.055 -0.07 2.117 C-0.047 1.419 -0.024 0.72 0 0 Z " fill="#252252" transform="translate(76,51)"/>
<path d="M0 0 C1.625 1.75 1.625 1.75 2.062 4.25 C1.625 6.75 1.625 6.75 0.5 8.5 C-2.046 10.198 -4.336 10.998 -7.375 10.75 C-10.562 9.437 -12.812 7.809 -14.438 4.75 C-14.349 1.917 -13.316 0.76 -11.375 -1.25 C-7.844 -3.436 -3.372 -1.774 0 0 Z M-9.375 1.75 C-9.705 2.41 -10.035 3.07 -10.375 3.75 C-9.188 5.312 -9.188 5.312 -7.375 6.75 C-4.688 6.438 -4.688 6.438 -2.375 5.75 C-2.705 4.43 -3.035 3.11 -3.375 1.75 C-4.344 1.709 -5.314 1.667 -6.312 1.625 C-6.858 1.602 -7.403 1.579 -7.965 1.555 C-8.198 1.587 -8.198 1.587 -9.375 1.75 Z " fill="#252252" transform="translate(130.375,56.25)"/>
<path d="M0 0 C1.32 0.33 2.64 0.66 4 1 C4 2.32 4 3.64 4 5 C2.68 5 1.36 5 0 5 C0 3.35 0 1.7 0 0 Z " fill="#252252" transform="translate(147,62)"/>
<path d="M0 0 C1.072 3.477 1.118 6.655 1.062 10.25 C1.058 10.804 1.053 11.359 1.049 11.93 C1.037 13.287 1.019 14.643 1 16 C-0.32 16 -1.64 16 -3 16 C-3.222 13.896 -3.428 11.793 -3.625 9.688 C-3.689 9.093 -3.754 8.498 -3.82 7.885 C-4.214 3.482 -4.214 3.482 -3.148 1.082 C-2 0 -2 0 0 0 Z " fill="#252252" transform="translate(101,120)"/>
<path d="M0 0 C4.247 0.488 6.133 2.829 8.812 5.875 C9.022 6.099 9.022 6.099 10.084 7.23 C11.27 8.555 11.27 8.555 13 11 C12.608 12.653 12.608 12.653 12 14 C8.369 12.456 5.938 10.304 3.188 7.562 C2.768 7.167 2.348 6.772 1.916 6.365 C0.73 5.191 0.73 5.191 -1 3 C-0.762 1.215 -0.762 1.215 0 0 Z " fill="#252252" transform="translate(78,130)"/>
<path d="M0 0 C4.885 0.431 9.871 1.174 14 4 C14.438 6.188 14.438 6.188 14 8 C10.816 7.271 7.805 6.277 4.75 5.125 C3.858 4.798 2.966 4.47 2.047 4.133 C1.371 3.759 0.696 3.385 0 3 C0 2.01 0 1.02 0 0 Z " fill="#252252" transform="translate(67,147)"/>
<path d="M0 0 C1.938 1.5 1.938 1.5 3 4 C2.645 8.712 1.642 13.762 -2 17 C-4.438 18 -4.438 18 -7 18 C-10.089 15.684 -11.432 13.788 -12 10 C-11.206 6.134 -9.78 2.858 -7.125 -0.062 C-4.263 -1.325 -2.904 -1.117 0 0 Z " fill="#252252" transform="translate(158,202)"/>
<path d="M0 0 C1.48 0.695 1.48 0.695 3 2 C3.363 4.242 3.363 4.242 3.312 6.875 C3.309 7.739 3.305 8.602 3.301 9.492 C2.984 12.136 2.52 13.814 1 16 C0.01 16 -0.98 16 -2 16 C-1.928 15.336 -1.856 14.672 -1.781 13.988 C-1.688 13.105 -1.596 12.222 -1.5 11.312 C-1.407 10.442 -1.314 9.572 -1.219 8.676 C-1 6 -1 6 -1.031 3.23 C-1 1 -1 1 0 0 Z " fill="#252252" transform="translate(307,214)"/>
<path d="M0 0 C2.375 1.25 2.375 1.25 3.375 3.25 C3.881 7.475 4.251 11.715 1.688 15.312 C0.003 17.027 -0.664 17.259 -3.125 17.812 C-6.466 17.061 -7.646 16.035 -9.625 13.25 C-10.42 8.677 -9.417 6.287 -6.793 2.547 C-4.458 -0.046 -3.486 -0.996 0 0 Z " fill="#252252" transform="translate(225.625,217.75)"/>
<path d="M0 0 C1.5 0.312 1.5 0.312 3 1 C3.33 1.66 3.66 2.32 4 3 C6.109 3.055 6.109 3.055 8.75 2.875 C13.585 2.745 13.585 2.745 15.492 3.918 C16.234 4.667 16.972 5.42 17.707 6.176 C20.117 7.712 22.746 6.855 25.426 6.359 C25.686 6.3 25.686 6.3 27 6 C27.562 7.375 27.562 7.375 28 9 C27 11 27 11 25.125 11.688 C22.713 13.177 22.53 13.758 21.562 16.312 C20.104 20.048 18.409 22.782 15 25 C11.405 26.336 8.88 26.348 5.312 24.938 C2.444 22.803 0.163 20.424 -1 17 C-0.951 14.315 -0.637 11.815 -0.164 9.172 C-0.11 8.455 -0.056 7.738 0 7 C-0.66 6.34 -1.32 5.68 -2 5 C-1.464 1.464 -1.464 1.464 0 0 Z M4 9 C3.919 10.437 3.861 11.874 3.812 13.312 C3.778 14.113 3.743 14.914 3.707 15.738 C4 18 4 18 5.328 19.766 C7.362 21.267 8.995 21.489 11.508 21.352 C14.232 20.71 15.397 19.197 17 17 C17.75 14.25 17.75 14.25 18 12 C13.092 8.524 9.876 7.357 4 9 Z " fill="#252252" transform="translate(174,222)"/>
<path d="M0 0 C0.33 0 0.66 0 1 0 C1.426 3.102 1.598 5.914 1 9 C-0.965 11.361 -3.117 12.926 -6 14 C-7.73 13.617 -7.73 13.617 -9 13 C-9 12.01 -9 11.02 -9 10 C-7.539 9.043 -7.539 9.043 -5.625 8.188 C-2.815 6.729 -1.532 5.803 -0.562 2.75 C-0.377 1.843 -0.191 0.935 0 0 Z " fill="#252252" transform="translate(319,228)"/></svg>